<?xml version="1.0" standalone="no"?><!DOCTYPE svg PUBLIC "-//W3C//DTD SVG 1.1//EN" "http://www.w3.org/Graphics/SVG/1.1/DTD/svg11.dtd"><svg t="1557556105414" class="icon" style="" viewBox="0 0 1024 1024" version="1.1" xmlns="http://www.w3.org/2000/svg" p-id="5206" xmlns:xlink="http://www.w3.org/1999/xlink" width="64" height="64"><defs><style type="text/css"></style></defs><path d="M229.493567 343.057721h565.073089v409.938453a67.449841 67.449841 0 0 1-67.02828 67.750957h-46.311543v139.717528a63.414895 63.414895 0 1 1-126.82979 0v-139.717528H469.602957v139.717528c0 35.049828-28.42529 63.354672-63.535341 63.354672a63.234226 63.234226 0 0 1-62.752442-63.354672l-0.542007-139.717528h-45.588866a67.570287 67.570287 0 0 1-67.690734-67.750957V343.057721z m-87.443901-11.683276a63.234226 63.234226 0 0 0-63.414895 62.752441v264.740626c0 35.110051 28.365067 63.354672 63.414895 63.354672s62.752441-28.304844 62.752442-63.354672V394.126886c0-34.387374-28.184398-62.752441-62.752442-62.752441z m654.323682-10.478815H227.024422c0-97.862493 58.536826-182.837248 145.318273-227.101206L328.560522 13.215953a8.973238 8.973238 0 0 1 3.071376-12.34573c4.275838-1.866915 9.876584-0.662454 12.34573 3.733831l44.263958 81.240925c37.63942-16.681791 79.494456-25.895921 123.758414-25.895922s86.118993 9.21413 123.758414 25.835698L680.022372 4.543831c2.469146-4.336061 8.069892-5.540523 12.34573-3.733831a8.973238 8.973238 0 0 1 3.071376 12.34573l-43.782173 80.578471c86.23944 44.324181 144.716043 129.298936 144.716043 227.161429zM406.067616 194.126063a23.968783 23.968783 0 0 0-23.90856-24.029006 23.90856 23.90856 0 0 0-23.426775 24.029006c0 12.887737 10.418592 23.968783 23.426775 23.968782a23.90856 23.90856 0 0 0 23.90856-23.968782z m259.200103 0a23.90856 23.90856 0 0 0-23.426775-24.029006 23.968783 23.968783 0 0 0 0 47.997788 23.788114 23.788114 0 0 0 23.426775-23.968782z m216.682615 137.248382a62.631995 62.631995 0 0 0-62.752442 62.752441v264.740626a63.053557 63.053557 0 1 0 126.167337 0V394.126886a62.872888 62.872888 0 0 0-63.414895-62.752441z" fill="" p-id="5207"></path></svg>