<?xml version="1.0" standalone="no"?><!DOCTYPE svg PUBLIC "-//W3C//DTD SVG 1.1//EN" "http://www.w3.org/Graphics/SVG/1.1/DTD/svg11.dtd"><svg t="1555293417063" class="icon" style="" viewBox="0 0 1024 1024" version="1.1" xmlns="http://www.w3.org/2000/svg" p-id="2042" xmlns:xlink="http://www.w3.org/1999/xlink" width="64" height="64"><defs><style type="text/css"></style></defs><path d="M512 512m-512 0a512 512 0 1 0 1024 0 512 512 0 1 0-1024 0Z" fill="#6699FF" p-id="2043"></path><path d="M494.931499 933.54575a472.465126 472.465126 0 0 0 238.931499-64.8515c-18.77425-51.172488-37.548501-92.16-69.97425-112.64-76.797249-47.788501-122.874498-52.90575-168.957249-52.905749s-92.16 3.411499-167.273509 52.905749c-34.114992 22.18575-52.894745 63.14575-69.95224 112.64a461.570339 461.570339 0 0 0 237.225749 64.8515z" fill="#1F4DAA" p-id="2044"></path><path d="M426.668501 592.21425v136.5315c0 25.597249 30.72 47.788501 68.268501 47.7885s68.268501-20.48 68.2685-47.7885v-136.5315z" fill="#E8B795" p-id="2045"></path><path d="M709.971499 442.031252a47.788501 42.66575 90 1 0 85.331499 0 47.788501 42.66575 90 1 0-85.331499 0Z" fill="#F4D1AE" p-id="2046"></path><path d="M196.26575 442.031252a47.788501 42.66575 90 1 0 85.331499 0 47.788501 42.66575 90 1 0-85.331499 0Z" fill="#F4D1AE" p-id="2047"></path><path d="M494.931499 442.02575m-256 0a256 256 0 1 0 512 0 256 256 0 1 0-512 0Z" fill="#FFDEB9" p-id="2048"></path><path d="M494.931499 399.36m-256 0a256 256 0 1 0 512 0 256 256 0 1 0-512 0Z" fill="#FFDEB9" p-id="2049"></path><path d="M827.73425 151.89425s-15.362751 18.77425-73.385749 18.774251c-54.611499 0-104.10575-69.97425-235.503493-78.508501-8.53425 0-15.362751-1.70575-23.891499-1.70575A275.329995 275.329995 0 0 0 218.451499 366.93425c0 37.548501 6.828501 75.091499 20.48 104.10575h10.24c0-119.468501 23.891499-233.81425 167.273509-220.157249 145.06575 13.651499 155.30575 17.057496 283.308501 6.828501a586.1836 586.1836 0 0 1 40.96 213.33425h10.24a257.579194 257.579194 0 0 0 20.48-104.105749 271.736916 271.736916 0 0 0-23.891499-112.64 1.650725 1.650725 0 0 0 1.705749-1.70575c76.775239-30.725502 78.486491-100.699753 78.486491-100.699753z" fill="#42341C" p-id="2050"></path><path d="M402.771499 406.188501m-18.77425 0a18.77425 18.77425 0 1 0 37.548501 0 18.77425 18.77425 0 1 0-37.548501 0Z" fill="#42341C" p-id="2051"></path><path d="M407.89425 401.071252m-6.8285 0a6.828501 6.828501 0 1 0 13.657001 0 6.828501 6.828501 0 1 0-13.657001 0Z" fill="#FFFFFF" p-id="2052"></path><path d="M587.091499 406.188501m-18.77425 0a18.77425 18.77425 0 1 0 37.548501 0 18.77425 18.77425 0 1 0-37.548501 0Z" fill="#42341C" p-id="2053"></path><path d="M592.21425 401.071252m-6.8285 0a6.828501 6.828501 0 1 0 13.657001 0 6.828501 6.828501 0 1 0-13.657001 0Z" fill="#FFFFFF" p-id="2054"></path><path d="M491.52 651.948501a64.620398 64.620398 0 0 0 71.68-49.494251c0-1.70575-1.70575-5.117249-3.411499-5.117248l-117.751747-17.057496c-1.70575 0-5.117249 1.70575-5.117248 3.411499a63.613455 63.613455 0 0 0 54.600494 68.257496z" fill="#E5916A" p-id="2055"></path><path d="M486.397249 544.42575h-25.597249c-1.70575 0-3.411499 0-3.411499-1.70575s-1.70575-1.70575 0-3.411499l22.185749-76.802751c0-1.70575 3.411499-3.411499 5.117249-3.4115s3.411499 3.411499 3.411499 5.122752l-11.945749 68.262998h11.945749a5.447394 5.447394 0 0 1 5.117249 5.117249v5.117249c-1.68374 0.016507-3.405997 1.711252-6.822998 1.711252z" fill="#F7C8A1" p-id="2056"></path><path d="M501.732488 807.25425a99.412187 99.412187 0 0 1-18.77425 30.72 28.85468 28.85468 0 0 0-17.057496 11.94575c3.411499-10.24 10.24-15.362751 8.53425-25.597249a29.674541 29.674541 0 0 0-6.817496-15.362751v1.70575c1.70575 15.362751-6.828501 25.597249-10.24 35.837248-6.828501 23.891499 5.117249 40.96 22.18575 44.3715-11.94575-6.828501-22.18575-29.01425-1.70575-40.96-13.651499 22.18575 5.117249 47.788501 32.42575 37.5485-23.885997 1.711252-30.708995-13.62949-25.608254-29.03626 3.411499-17.057496 29.01425-32.42575 17.057496-51.172488" fill="#FFFFFF" p-id="2057"></path><path d="M500.05425 848.21425a26.175003 26.175003 0 0 1 29.014251-3.411499 19.291478 19.291478 0 0 0-18.774251 3.411499c-6.828501 6.828501-10.24 15.362751-5.117248 22.18575 5.117249 5.122751 15.362751 5.122751 23.891499 0a9.145019 9.145019 0 0 0 5.117249-6.828501 69.1764 69.1764 0 0 1-8.534251 15.362751c-10.24 8.53425-23.891499 8.53425-30.72 0s-3.411499-22.18575 5.117249-30.72" fill="#FFFFFF" p-id="2058"></path><path d="M530.768748 848.21425c1.70575 3.411499 3.411499 3.411499 6.828501 3.4115-3.411499 1.70575-3.411499 3.411499-3.411499 6.8285-1.70575-3.411499-3.411499-3.411499-6.828501-3.411499 3.411499-1.70575 3.411499-3.411499 3.411499-6.828501" fill="#FFFFFF" p-id="2059"></path><path d="M527.357249 827.73425a1.650725 1.650725 0 0 0 1.705749 1.70575 5.287824 5.287824 0 0 1-1.705749 3.411499c-1.70575-1.70575-1.70575-1.70575-3.411499-1.705749 1.70575-1.70575 3.411499-1.70575 3.411499-3.4115" fill="#FFFFFF" p-id="2060"></path><path d="M537.597249 832.851499c1.70575 1.70575 1.70575 1.70575 5.117249 1.70575-1.70575 1.70575-1.70575 1.70575-1.70575 5.122751-1.70575-1.70575-1.70575-1.70575-5.117249-1.70575a6.267254 6.267254 0 0 0 1.70575-5.117248" fill="#FFFFFF" p-id="2061"></path></svg>