<?xml version="1.0" standalone="no"?><!DOCTYPE svg PUBLIC "-//W3C//DTD SVG 1.1//EN" "http://www.w3.org/Graphics/SVG/1.1/DTD/svg11.dtd"><svg t="1557554788672" class="icon" style="" viewBox="0 0 1024 1024" version="1.1" xmlns="http://www.w3.org/2000/svg" p-id="2603" xmlns:xlink="http://www.w3.org/1999/xlink" width="64" height="64"><defs><style type="text/css"></style></defs><path d="M587.91253333 524.56106667L988.22826667 124.24533333c20.20693333-20.20693333 20.20693333-53.52106667 0-73.728l-2.18453334-2.18453333c-20.20693333-20.20693333-53.52106667-20.20693333-73.728 0L512 449.19466667 111.68426667 48.3328c-20.20693333-20.20693333-53.52106667-20.20693333-73.728 0l-2.18453334 2.18453333c-20.75306667 20.20693333-20.75306667 53.52106667 0 73.728l400.31573334 400.31573334L35.77173333 924.8768c-20.20693333 20.20693333-20.20693333 53.52106667 0 73.728l2.18453334 2.18453333c20.20693333 20.20693333 53.52106667 20.20693333 73.728 0L512 600.4736 912.31573333 1000.78933333c20.20693333 20.20693333 53.52106667 20.20693333 73.728 0l2.18453334-2.18453333c20.20693333-20.20693333 20.20693333-53.52106667 0-73.728L587.91253333 524.56106667z" p-id="2604"></path></svg>