<?xml version="1.0" standalone="no"?><!DOCTYPE svg PUBLIC "-//W3C//DTD SVG 1.1//EN" "http://www.w3.org/Graphics/SVG/1.1/DTD/svg11.dtd"><svg t="1550642189419" class="icon" style="" viewBox="0 0 1311 1024" version="1.1" xmlns="http://www.w3.org/2000/svg" p-id="15714" xmlns:xlink="http://www.w3.org/1999/xlink" width="40.96875" height="32"><defs><style type="text/css"></style></defs><path d="M281.124852 651.431516c0-25.673186-9.14121-47.599807-27.423631-65.75939-18.282421-18.169819-40.33188-27.24961-66.168851-27.24961-25.836971 0-47.896666 9.079791-66.179087 27.24961-18.272184 18.159582-27.413395 40.086203-27.413395 65.75939 0 25.673186 9.14121 47.599807 27.413395 65.75939 18.282421 18.169819 40.33188 27.24961 66.179087 27.24961 25.836971 0 47.88643-9.079791 66.168851-27.24961 18.282421-18.169819 27.423631-40.086203 27.423631-65.75939z m140.383604-325.531501c0-25.673186-9.14121-47.599807-27.423631-65.75939-18.272184-18.169819-40.33188-27.24961-66.168851-27.24961-25.836971 0-47.896666 9.079791-66.16885 27.24961-18.282421 18.159582-27.423631 40.086203-27.423631 65.75939 0 25.673186 9.14121 47.599807 27.423631 65.75939 18.272184 18.159582 40.33188 27.24961 66.16885 27.24961 25.836971 0 47.896666-9.090028 66.168851-27.24961 18.282421-18.169819 27.423631-40.086203 27.423631-65.75939zM734.44904 675.40544l73.856475-277.573415c2.917408-12.590917 1.095307-24.342439-5.486773-35.24433-6.582081-10.891655-15.968968-18.036744-28.150424-21.435268-12.181456-3.378051-23.881796-1.811864-35.101019 4.729271-11.208987 6.541135-18.528097 16.102042-21.936858 28.703196l-73.846239 277.573415c-29.245731 2.426055-55.328378 12.959431-78.237705 31.610366-22.909327 18.650935-38.264103 42.502022-46.06433 71.573732-9.745165 37.301871-4.872582 72.658803 14.627984 106.09127 19.500566 33.42223 48.009268 54.9701 85.546579 64.664083 37.537311 9.693982 73.119446 4.852109 106.756643-14.535855 33.626961-19.367492 55.318142-47.702173 65.073544-85.01428 7.800227-29.07171 6.336404-57.396155-4.391466-85.01428-10.717634-27.607888-28.273262-49.647111-52.646411-66.127905z m482.580156-23.973924c0-25.673186-9.14121-47.599807-27.413395-65.75939-18.282421-18.169819-40.33188-27.24961-66.179087-27.24961-25.836971 0-47.88643 9.079791-66.168851 27.24961-18.282421 18.159582-27.423631 40.086203-27.423631 65.75939 0 25.673186 9.14121 47.599807 27.423631 65.75939 18.282421 18.169819 40.33188 27.24961 66.168851 27.24961 25.836971 0 47.896666-9.079791 66.179087-27.24961 18.272184-18.169819 27.413395-40.086203 27.413395-65.75939z m-467.952172-465.045001c0-25.683423-9.14121-47.599807-27.423631-65.769626C703.391445 102.467543 681.321513 93.377515 655.484542 93.377515c-25.836971 0-47.896666 9.079791-66.168851 27.239374-18.282421 18.169819-27.423631 40.086203-27.423631 65.769626 0 25.673186 9.14121 47.599807 27.423631 65.75939 18.272184 18.159582 40.33188 27.24961 66.168851 27.24961 25.836971 0 47.896666-9.090028 66.168851-27.24961 18.282421-18.169819 27.423631-40.086203 27.423631-65.75939z m327.568567 139.5135c0-25.673186-9.14121-47.599807-27.423631-65.75939-18.272184-18.169819-40.33188-27.24961-66.16885-27.24961-25.836971 0-47.896666 9.079791-66.168851 27.24961-18.282421 18.159582-27.423631 40.086203-27.423631 65.75939 0 25.673186 9.14121 47.599807 27.423631 65.75939 18.272184 18.159582 40.33188 27.24961 66.168851 27.24961 25.836971 0 47.896666-9.090028 66.16885-27.24961 18.282421-18.169819 27.423631-40.086203 27.423631-65.75939zM1310.621677 651.431516c0 126.431231-34.36399 243.424392-103.09197 350.969247-9.264049 14.044502-22.417974 21.066754-39.492485 21.066754H142.942099c-17.064275 0-30.228437-7.022251-39.492486-21.066754C34.711397 895.337024 0.347407 778.354099 0.347407 651.431516c0-88.167127 17.299715-172.454614 51.909381-252.872698C86.866455 318.150971 133.422137 248.870219 191.9136 190.747272c58.501699-58.143421 128.202148-104.402244 209.121821-138.796944C481.955093 17.555628 566.764643 0.358278 655.484542 0.358278c88.719899 0 173.529449 17.19735 254.449121 51.59205 80.919673 34.3947 150.620122 80.66376 209.121821 138.796944 58.491462 58.122948 105.047145 127.4037 139.656812 207.811546 34.59943 80.418083 51.909381 164.70557 51.909381 252.872698z" p-id="15715"></path></svg>