<?xml version="1.0" standalone="no"?><!DOCTYPE svg PUBLIC "-//W3C//DTD SVG 1.1//EN" "http://www.w3.org/Graphics/SVG/1.1/DTD/svg11.dtd"><svg t="1557288192841" class="icon" style="" viewBox="0 0 1024 1024" version="1.1" xmlns="http://www.w3.org/2000/svg" p-id="3296" xmlns:xlink="http://www.w3.org/1999/xlink" width="64" height="64"><defs><style type="text/css"></style></defs><path d="M1016.992 652l-256-320c-6.08-7.584-15.264-12-24.992-12l-448 0c-9.728 0-18.912 4.416-24.992 12l-256 320c-4.544 5.664-7.008 12.736-7.008 20l0 288c0 35.36 28.64 64 64 64l896 0c35.36 0 64-28.64 64-64l0-288c0-7.264-2.464-14.304-7.008-20zM960 704l-224 0-128 128-192 0-128-128-224 0 0-20.768 239.392-299.232 417.248 0 239.392 299.232 0 20.768z" p-id="3297"></path></svg>