<?xml version="1.0" standalone="no"?><!DOCTYPE svg PUBLIC "-//W3C//DTD SVG 1.1//EN" "http://www.w3.org/Graphics/SVG/1.1/DTD/svg11.dtd"><svg t="1551923454979" class="icon" style="" viewBox="0 0 1024 1024" version="1.1" xmlns="http://www.w3.org/2000/svg" p-id="2051" xmlns:xlink="http://www.w3.org/1999/xlink" width="64" height="64"><defs><style type="text/css"></style></defs><path d="M642.36743 591.009894 300.576925 393.666758c-41.951816-24.223894-95.583582-9.855957-119.807476 32.09586-24.223894 41.951816-9.855957 95.583582 32.09586 119.807476l341.790505 197.311137c41.951816 24.223894 95.583582 9.855957 119.807476-32.09586C698.687183 668.865554 684.319246 615.233788 642.36743 591.009894zM360.480663 377.634828l265.822837 153.471329 90.399605-251.614899-183.551197-105.983536L360.480663 377.634828zM164.51352 1024l254.302887-308.894649-113.919502-65.791712L164.51352 1024zM826.590624 140.387866l-227.839003-131.551424c-31.455862-18.17592-71.679686-7.391968-89.855607 24.063895-18.17592 31.455862-7.391968 71.679686 24.063895 89.855607l227.839003 131.551424c31.455862 18.17592 71.679686 7.391968 89.855607-24.063895C868.830439 198.75561 858.046486 158.531786 826.590624 140.387866z" p-id="2052" fill="#515151"></path></svg>