<?xml version="1.0" standalone="no"?><!DOCTYPE svg PUBLIC "-//W3C//DTD SVG 1.1//EN" "http://www.w3.org/Graphics/SVG/1.1/DTD/svg11.dtd"><svg t="1557555645588" class="icon" style="" viewBox="0 0 1024 1024" version="1.1" xmlns="http://www.w3.org/2000/svg" p-id="4206" xmlns:xlink="http://www.w3.org/1999/xlink" width="64" height="64"><defs><style type="text/css"></style></defs><path d="M771.851725 532.74344c-1.041726-115.476011 97.616248-171.109076 102.126982-173.886329-55.612599-78.261435-141.915174-89.141226-172.700317-90.337471-73.434499-7.080256-143.559627 41.891086-180.736341 41.891086-37.304627 0-94.721315-40.71633-155.849534-39.563064-80.103386 1.174756-153.964604 45.083801-195.284685 114.40768-83.10372 139.831722-21.153786 346.704326 59.996442 459.894272 39.680744 55.484685 86.916559 117.739565 149.105946 115.453499 59.852156-2.157129 82.335217-37.437657 154.611334-37.437657 72.228021-0.107447 92.608188 37.416168 155.726737 36.263925 64.332191-1.325182 105.176434-56.637951 144.632051-112.25055 45.350884-64.197114 64.123436-126.559441 65.089437-129.7409C897.257899 716.753337 773.282307 670.910243 771.851725 532.74344z" p-id="4207"></path><path d="M638.618281 209.063503c32.889061-38.613436 55.164391-92.25003 49.098231-145.726989-47.486524 1.857301-105.128339 30.700209-139.04173 69.163219-30.630624 34.180474-57.18235 88.821955-49.884131 141.252071C551.675116 277.724279 605.654518 247.717871 638.618281 209.063503z" p-id="4208"></path></svg>