<?xml version="1.0" standalone="no"?><!DOCTYPE svg PUBLIC "-//W3C//DTD SVG 1.1//EN" "http://www.w3.org/Graphics/SVG/1.1/DTD/svg11.dtd"><svg t="1555318144661" class="icon" style="" viewBox="0 0 1024 1024" version="1.1" xmlns="http://www.w3.org/2000/svg" p-id="3761" xmlns:xlink="http://www.w3.org/1999/xlink" width="64" height="64"><defs><style type="text/css"></style></defs><path d="M519.882 576.78c21.116 0 38.235-17.12 38.235-38.236V102.33c0-21.117-17.119-38.236-38.235-38.236-21.117 0-38.236 17.119-38.236 38.236v436.212c0 21.117 17.119 38.236 38.236 38.236z" p-id="3762"></path><path d="M875.899 284.844C830.212 215.548 766.16 160.953 690.67 126.961c-19.257-8.672-41.893-0.09-50.563 19.165-8.67 19.256-0.09 41.893 19.165 50.564 128.687 57.945 211.839 186.548 211.839 327.632 0 198.014-161.097 359.112-359.112 359.112S152.888 722.335 152.888 524.322c0-139.464 81.813-267.456 208.43-326.075 19.163-8.872 27.505-31.599 18.633-50.76-8.873-19.164-31.598-27.506-50.762-18.634-74.4 34.444-137.446 89.038-182.323 157.878-46.089 70.698-70.449 152.855-70.449 237.592 0 58.786 11.523 115.835 34.246 169.56 21.941 51.873 53.343 98.453 93.334 138.444 39.99 39.99 86.57 71.392 138.444 93.333 53.726 22.724 110.773 34.246 169.56 34.246s115.835-11.522 169.56-34.246c51.873-21.941 98.453-53.343 138.444-93.333 39.99-39.991 71.393-86.57 93.334-138.445 22.724-53.725 34.246-110.773 34.246-169.56-0.001-85.538-24.79-168.347-71.686-239.478z" p-id="3763"></path></svg>