<?xml version="1.0" standalone="no"?><!DOCTYPE svg PUBLIC "-//W3C//DTD SVG 1.1//EN" "http://www.w3.org/Graphics/SVG/1.1/DTD/svg11.dtd"><svg t="1558267492442" class="icon" style="" viewBox="0 0 1024 1024" version="1.1" xmlns="http://www.w3.org/2000/svg" p-id="3028" xmlns:xlink="http://www.w3.org/1999/xlink" width="128" height="128"><defs><style type="text/css"></style></defs><path d="M928.768 84.992H95.232C56.832 84.992 25.6 116.224 25.6 154.624v556.032c0 38.4 31.232 69.632 69.632 69.632h368.64l-20.992 112.64h-174.08c-18.944 0-34.816 15.36-34.816 34.816v11.264h556.032v-11.264c0-18.944-15.36-34.816-34.816-34.816h-173.568l-20.992-112.64h368.64c38.4 0 69.632-31.232 69.632-69.632V154.624c-0.512-38.4-31.744-69.632-70.144-69.632zM512 744.448c-11.264 0-19.968-9.216-19.968-19.968s9.216-19.968 19.968-19.968c11.264 0 19.968 9.216 19.968 19.968s-8.704 19.968-19.968 19.968z m424.448-71.68H87.552V143.872h848.896v528.896z" p-id="3029"></path><path d="M570.88 263.68c22.016-25.6 19.968-63.488 19.968-63.488s-37.376 3.584-59.392 29.184-19.968 63.488-19.968 63.488 37.376-3.584 59.392-29.184m47.616 147.456c0-32.256 17.92-60.416 44.032-75.264-18.432-26.624-50.688-40.96-73.216-40.96-27.136 0-64 18.944-74.752 18.944-11.264 0-35.328-17.408-67.584-17.92-26.624-0.512-70.656 14.848-86.528 60.416-15.36 45.568-14.848 111.616 17.92 172.544 26.112 49.152 49.152 68.608 71.168 68.608 22.528 0 48.64-16.896 69.632-16.896s40.448 16.896 61.952 16.896c21.504 0 44.032-17.92 59.904-41.984 16.384-24.576 31.232-62.464 31.232-62.464s0-1.024 0.512-2.56c-31.744-11.776-54.272-43.008-54.272-79.36m0 0" p-id="3030"></path></svg>