<?xml version="1.0" standalone="no"?><!DOCTYPE svg PUBLIC "-//W3C//DTD SVG 1.1//EN" "http://www.w3.org/Graphics/SVG/1.1/DTD/svg11.dtd"><svg t="1556334997297" class="icon" style="" viewBox="0 0 1638 1024" version="1.1" xmlns="http://www.w3.org/2000/svg" p-id="3564" xmlns:xlink="http://www.w3.org/1999/xlink" width="102.375" height="64"><defs><style type="text/css"></style></defs><path d="M1520.274027 0H118.125973C52.975513 0 0 52.975513 0 118.125973v787.675584c0 65.15046 52.975513 118.125973 118.125973 118.125973h1402.148054c65.15046 0 118.125973-52.975513 118.125973-118.125973V118.125973c0-65.15046-52.975513-118.125973-118.125973-118.125973z m-598.674027 818.98259l-204.8 0.21741V512l-153.636235 196.900778-153.636235-196.900778v307.2H204.72753V204.8h204.8l153.636235 204.8 153.636235-204.8 204.8-0.21741v614.4z m305.750602 51.236235l-254.514367-358.218825h153.563765V204.8h204.8v307.2h153.563765l-257.485633 358.218825z" fill="" p-id="3565"></path></svg>