<?xml version="1.0" standalone="no"?><!DOCTYPE svg PUBLIC "-//W3C//DTD SVG 1.1//EN" "http://www.w3.org/Graphics/SVG/1.1/DTD/svg11.dtd"><svg t="1555293896034" class="icon" style="" viewBox="0 0 1024 1024" version="1.1" xmlns="http://www.w3.org/2000/svg" p-id="8967" xmlns:xlink="http://www.w3.org/1999/xlink" width="64" height="64"><defs><style type="text/css"></style></defs><path d="M869.791789 616.882394v-164.279002c0-135.515932-86.809474-268.232357-208.005807-326.427407-20.290228-57.253623-73.134009-95.009798-140.272615-95.009798-65.453947 0-118.495923 38.202115-139.256865 94.687731C259.301188 184.17284 172.194421 317.533399 173.804756 453.470496v163.015508C135.924709 651.98771 89.770014 709.95979 101.98379 774.199792c5.103525 26.805894 24.972588 74.992089 100.856555 96.694457l10.008855 2.87383h107.644739c37.409334 82.597827 127.687223 126.968766 200.722135 126.968766s157.366947-30.967992 203.422544-126.968766h106.306922l10.20705-2.997702c74.471826-21.751917 94.142695-69.591271 99.221445-96.14942 12.312873-64.041807-33.197687-122.162534-70.582246-157.738563zM521.81066 933.647787c-38.648054 0-84.901846-23.733869-115.696417-59.879708h236.000871c-30.645925 39.044444-79.748772 59.879709-120.304454 59.879708z m298.53144-134.202888H223.303994c-123.103961-35.179639 24.873491-148.64636 24.873491-148.64636v-198.195147c-1.436915-119.511673 85.843273-237.338688 199.012702-272.518327 0-38.7967 26.136985-74.595698 74.347954-74.595698 48.186195 0 74.917765 33.172913 74.917766 74.595698 112.921685 35.229187 199.012702 153.279172 199.012702 272.518327v198.195147s145.351366 113.441947 24.873491 148.64636z" p-id="8968"></path></svg>