<?xml version="1.0" standalone="no"?><!DOCTYPE svg PUBLIC "-//W3C//DTD SVG 1.1//EN" "http://www.w3.org/Graphics/SVG/1.1/DTD/svg11.dtd"><svg t="1552273085441" class="icon" style="" viewBox="0 0 1024 1024" version="1.1" xmlns="http://www.w3.org/2000/svg" p-id="5291" xmlns:xlink="http://www.w3.org/1999/xlink" width="64" height="64"><defs><style type="text/css"></style></defs><path d="M924.28 109l-2.22-8.69-8.74-2.27c-148.58-39.29-378 0-573.47 228.32-91.71-2.12-166 30.66-240.28 104.94l-13.09 13.11 180.24 121.26c-24 43.63-9.85 108.12 36.05 154s110.3 60.1 152.87 37.12l121.27 182.5L590 926.2c76.46-76.46 109.24-150.75 106-243.62C923.16 485.87 963.62 257.65 924.28 109zM655.45 463c-54.59-2.17-97.22-49.13-95-103.78s49.19-97.26 103.79-95.09 97.16 49.19 95 103.79S710 465.17 655.45 463zM186.11 765.2c-29.29 29.29-47.36 119.49-47.36 119.49s86.86-14.69 119.53-47.32c24.8-24.8 29.28-60.87 9-81.18s-56.37-15.79-81.17 9.01z" p-id="5292"></path></svg>