<?xml version="1.0" standalone="no"?><!DOCTYPE svg PUBLIC "-//W3C//DTD SVG 1.1//EN" "http://www.w3.org/Graphics/SVG/1.1/DTD/svg11.dtd"><svg t="1555318348401" class="icon" style="" viewBox="0 0 1024 1024" version="1.1" xmlns="http://www.w3.org/2000/svg" p-id="5251" xmlns:xlink="http://www.w3.org/1999/xlink" width="64" height="64"><defs><style type="text/css"></style></defs><path d="M975.03882 977.492597a46.507403 46.507403 0 0 1-93.014806 0v-0.552017h-1.104033a372.086825 372.086825 0 0 0-357.430783-325.965833c-3.864117 0.276008-7.728233 0.828025-11.868358 0.828025s-7.728233-0.552017-11.59235-0.828025A371.59001 371.59001 0 0 0 142.873715 976.94058h-1.380041l0.276008 0.552017a46.507403 46.507403 0 0 1-93.014806 0L48.202859 973.076464a43.360908 43.360908 0 0 1 3.3121-15.732475 465.267236 465.267236 0 0 1 276.560344-362.398933 325.82783 325.82783 0 1 1 367.367082 0 464.770421 464.770421 0 0 1 278.216394 373.991283 22.080666 22.080666 0 0 1 0.828025 4.140125z m-230.742961-651.379651a232.675019 232.675019 0 1 0-232.675019 232.675019 232.70262 232.70262 0 0 0 232.675019-232.675019z" p-id="5252"></path></svg>