<?xml version="1.0" standalone="no"?><!DOCTYPE svg PUBLIC "-//W3C//DTD SVG 1.1//EN" "http://www.w3.org/Graphics/SVG/1.1/DTD/svg11.dtd"><svg t="1557555009740" class="icon" style="" viewBox="0 0 1000 1000" version="1.1" xmlns="http://www.w3.org/2000/svg" p-id="3334" xmlns:xlink="http://www.w3.org/1999/xlink" width="64" height="64"><defs><style type="text/css"></style></defs><path d="M689.2536 330.2951c-0.066 0.066-0.1229 0.1219-0.1899 0.1899C687.107 332.4416 687.2969 332.2517 689.2536 330.2951zM907.7886 111.7682c-7.5242 7.5239-37.8239 37.8224-73.6422 73.6391C754.2903 99.7324 640.4457 46.1537 514.083 46.1537c-241.5973 0-437.4518 195.8432-437.4518 437.4334 0 241.5852 195.8534 437.4304 437.4518 437.4304 149.1641 0 280.8794-74.6634 359.8411-188.6451 7.4283-7.8387 11.9934-18.4185 11.9934-30.0706 0-24.1596-19.5845-43.7453-43.7452-43.7453-14.8106 0-27.8943 7.369-35.8082 18.6334l-0.5057-0.3158c-62.6761 94.414-169.9549 156.6588-291.7744 156.6588-193.2791 0-349.9614-156.6758-349.9614-349.9447 0-193.271 156.6824-349.9487 349.9614-349.9487 102.203 0 194.1685 43.8163 258.1508 113.6809-40.0755 40.0738-75.2721 75.269-82.9802 82.9757 20.0273-20.0054-40.1994 43.9282-0.1899 43.9282 40.1405 0 218.7259 0 218.7259 0 24.1606 0 43.7452-19.5817 43.7452-43.7393 0 0 0-185.6311 0-218.7167C951.5338 72.1941 929.8206 89.7372 907.7886 111.7682z" p-id="3335"></path></svg>