<?xml version="1.0" standalone="no"?><!DOCTYPE svg PUBLIC "-//W3C//DTD SVG 1.1//EN" "http://www.w3.org/Graphics/SVG/1.1/DTD/svg11.dtd"><svg t="1550641740432" class="icon" style="" viewBox="0 0 1024 1024" version="1.1" xmlns="http://www.w3.org/2000/svg" p-id="13744" xmlns:xlink="http://www.w3.org/1999/xlink" width="32" height="32"><defs><style type="text/css"></style></defs><path d="M974.72 304.832c0-35.392-28.544-64-64-64l-256 0 115.712 115.584c-1.088 0.96-2.368 1.28-3.328 2.304L559.872 565.952 413.568 419.776C406.656 412.864 398.592 408.256 390.016 405.12c-0.64-0.256-1.344-0.128-1.984-0.384-6.912-2.24-13.952-3.84-21.184-3.712-7.744 0-15.424 1.6-22.72 4.416-0.192 0.064-0.448 0-0.64 0.128-8.256 3.264-16 8-22.592 14.784l-252.8 252.8c-0.512 0.512-1.088 1.024-1.536 1.536-24.576 25.344-23.872 65.792 1.536 90.496 25.408 24.512 65.92 23.744 90.496-1.536l208-208 147.392 147.136c12.608 11.712 28.672 17.344 44.672 17.152 16.64 0.384 33.344-5.44 46.208-17.856l252.8-252.8c0.512-0.512 1.088-1.088 1.472-1.536 0.512-0.448 0.64-1.024 1.024-1.472l114.624 114.688L974.784 304.832z" p-id="13745"></path></svg>