<?xml version="1.0" standalone="no"?><!DOCTYPE svg PUBLIC "-//W3C//DTD SVG 1.1//EN" "http://www.w3.org/Graphics/SVG/1.1/DTD/svg11.dtd"><svg t="1555318315603" class="icon" style="" viewBox="0 0 1024 1024" version="1.1" xmlns="http://www.w3.org/2000/svg" p-id="3892" xmlns:xlink="http://www.w3.org/1999/xlink" width="64" height="64"><defs><style type="text/css"></style></defs><path d="M659.2 985.6c-19.2 0-38.4-6.4-44.8-19.2-12.8-19.2-64-64-102.4-64-38.4 0-89.6 44.8-102.4 57.6-12.8 12.8-32 19.2-44.8 19.2-6.4 0-19.2 0-25.6-6.4l-121.6-70.4c-19.2-12.8-32-44.8-19.2-70.4 0 0 12.8-25.6 12.8-51.2 0-70.4-57.6-128-128-128H64c-19.2 0-38.4-19.2-44.8-44.8 0 0-12.8-57.6-12.8-96 0-44.8 12.8-96 12.8-96 6.4-32 25.6-51.2 44.8-51.2h6.4c70.4 0 128-57.6 128-128 0-25.6-6.4-51.2-6.4-51.2-12.8-25.6 0-57.6 19.2-70.4l128-70.4c6.4 0 12.8-6.4 25.6-6.4 19.2 0 38.4 6.4 44.8 19.2 12.8 19.2 64 57.6 102.4 57.6 38.4 0 89.6-38.4 102.4-57.6 12.8-12.8 32-19.2 44.8-19.2 6.4 0 19.2 0 25.6 6.4l128 70.4c19.2 12.8 32 44.8 19.2 70.4 0 0-12.8 25.6-12.8 51.2 0 70.4 57.6 128 128 128h12.8c19.2 0 38.4 19.2 44.8 44.8 0 0 12.8 57.6 12.8 96 0 44.8-12.8 96-12.8 96-6.4 25.6-25.6 44.8-44.8 44.8h-6.4c-70.4 0-128 57.6-128 128 0 25.6 12.8 51.2 12.8 51.2 12.8 25.6 0 57.6-19.2 70.4l-128 70.4c-12.8 19.2-19.2 19.2-32 19.2m0-57.6l121.6-64c0-6.4-12.8-38.4-12.8-70.4 0-102.4 76.8-185.6 179.2-192 0-6.4 6.4-51.2 6.4-83.2s-6.4-76.8-6.4-83.2c-102.4-6.4-179.2-89.6-179.2-192 0-32 12.8-64 12.8-70.4l-115.2-64h-6.4s-19.2 19.2-44.8 38.4c-32 12.8-70.4 25.6-102.4 25.6s-64-12.8-102.4-38.4c-19.2-12.8-38.4-32-38.4-38.4h-6.4l-121.6 64c0 6.4 12.8 38.4 12.8 70.4 0 102.4-76.8 185.6-179.2 192 0 6.4-6.4 51.2-6.4 83.2s6.4 76.8 6.4 83.2c102.4 6.4 179.2 89.6 179.2 192 0 32-12.8 64-12.8 70.4l115.2 64h6.4s19.2-19.2 44.8-38.4c38.4-25.6 70.4-38.4 102.4-38.4s70.4 12.8 102.4 38.4c25.6 25.6 38.4 44.8 44.8 51.2M512 684.8c-96 0-172.8-76.8-172.8-172.8 0-96 76.8-172.8 172.8-172.8 96 0 172.8 76.8 172.8 172.8 0 96-76.8 172.8-172.8 172.8m0-288C448 396.8 396.8 448 396.8 512S448 627.2 512 627.2 627.2 576 627.2 512C620.8 448 569.6 396.8 512 396.8m0 0z" fill="" p-id="3893"></path></svg>