<?xml version="1.0" standalone="no"?><!DOCTYPE svg PUBLIC "-//W3C//DTD SVG 1.1//EN" "http://www.w3.org/Graphics/SVG/1.1/DTD/svg11.dtd"><svg t="1552282472247" class="icon" style="" viewBox="0 0 1024 1024" version="1.1" xmlns="http://www.w3.org/2000/svg" p-id="2772" xmlns:xlink="http://www.w3.org/1999/xlink" width="64" height="64"><defs><style type="text/css"></style></defs><path d="M923.648 614.4c0-205.312-166.912-372.224-372.224-372.224S179.2 409.088 179.2 614.4c0 99.328 40.448 195.072 111.104 264.704-7.68 13.312-12.288 28.16-12.288 44.544 0 48.64 39.424 87.552 87.552 87.552 31.744 0 58.88-16.896 74.24-41.984 35.84 11.264 73.216 17.408 111.104 17.408 39.936 0 79.36-6.656 117.248-18.944 15.36 26.112 43.008 44.032 75.264 44.032 48.64 0 87.552-39.424 87.552-87.552 0-17.92-5.632-34.816-14.848-49.152 69.12-70.656 107.52-162.304 107.52-260.608z m-558.08 373.248c-35.328 0-64.512-28.672-64.512-64.512 0-15.36 5.632-29.184 14.848-40.448 2.048-3.072 4.608-5.632 7.68-7.68 1.024-1.024 2.048-2.048 3.584-3.072 2.56-2.048 5.12-3.584 7.68-5.12 1.536-1.024 3.072-1.536 4.608-2.56 2.56-1.536 5.632-2.048 8.704-3.072l4.608-1.536c4.608-1.024 9.216-1.536 13.824-1.536 35.328 0 64.512 28.672 64.512 64.512 0 4.608-0.512 9.216-1.536 13.312 0 1.024-0.512 2.048-1.024 3.072-1.024 3.584-2.048 6.656-3.584 10.24-10.752 23.04-33.28 38.4-59.392 38.4z m293.888-41.472c-67.584 22.016-141.312 22.528-209.408 2.048 0.512-1.536 0.512-3.072 1.024-4.608 0.512-1.536 0.512-3.072 1.024-4.608 1.024-5.12 1.536-10.24 1.536-15.872 0-48.64-39.424-87.552-87.552-87.552-6.144 0-11.776 0.512-17.408 1.536-1.536 0.512-3.072 1.024-4.096 1.536-4.096 1.024-8.192 2.048-12.288 3.584-1.536 0.512-3.584 2.048-5.12 2.56-3.072 1.536-6.656 3.072-9.728 5.12l-7.68 6.144c-1.536 1.536-3.584 2.56-4.608 4.096-65.536-66.048-101.888-152.576-101.888-246.272 0-192.512 156.672-348.672 348.672-348.672s348.672 156.672 348.672 348.672c0 91.648-34.816 177.152-98.304 242.688l-4.608-3.072-6.144-4.608c-2.56-1.536-5.12-3.072-7.68-4.096-2.048-1.024-4.608-2.56-6.656-3.072-3.072-1.024-6.144-2.048-9.728-3.072-2.048-0.512-4.096-1.536-6.144-1.536-5.632-1.024-11.264-1.536-16.896-1.536-48.64 0-87.552 39.424-87.552 87.552 0 5.12 0.512 10.752 1.536 15.872 0 1.024 0.512 2.56 0.512 3.584 0 1.536 0 2.56 0.512 3.584z m84.48 41.472c-26.624 0-49.664-16.384-59.392-39.424-1.024-2.56-1.536-5.12-2.56-7.168-1.536-5.632-2.56-11.264-2.56-17.92 0-35.328 28.672-64.512 64.512-64.512 4.608 0 9.216 0.512 13.312 1.536 1.024 0 2.048 0.512 3.072 1.024 3.072 1.024 6.656 2.048 9.728 3.072 1.024 0.512 2.048 1.536 3.584 2.048 2.56 1.536 5.632 3.072 8.192 4.608 1.024 1.024 2.048 2.048 3.584 2.56 2.56 2.048 4.608 4.096 6.656 6.144 10.24 11.264 16.896 26.624 16.896 43.52-0.512 35.84-29.184 64.512-65.024 64.512z" p-id="2773"></path><path d="M483.328 568.32c0 5.12 4.096 9.216 9.216 9.216S501.76 573.44 501.76 568.32c0-56.32-45.568-101.888-101.888-101.888-56.32 0-101.888 45.568-101.888 101.888 0 5.12 4.096 9.216 9.216 9.216s10.24-4.096 10.24-9.216c0-45.568 37.376-82.944 82.944-82.944s82.944 37.376 82.944 82.944zM609.792 577.536c5.12 0 9.216-4.096 9.216-9.216 0-45.568 37.376-82.944 82.944-82.944s82.944 37.376 82.944 82.944c0 5.12 4.096 9.216 9.216 9.216s9.216-4.096 9.216-9.216c0-56.32-45.568-101.888-101.888-101.888-55.808 0-101.888 45.568-101.888 101.888 1.024 5.12 5.12 9.216 10.24 9.216zM686.08 722.432c-3.584-4.096-9.728-5.12-14.336-1.536-0.512 0.512-55.296 43.008-128.512 43.008-71.68 0-111.104-41.984-111.616-41.984-3.584-4.096-10.24-4.608-14.336-0.512-4.096 3.584-4.608 10.24-0.512 14.336 2.048 2.048 45.568 48.64 126.464 48.64 80.384 0 138.24-45.568 140.8-47.616 4.608-3.584 5.632-10.24 2.048-14.336zM567.296 243.712c-22.016-29.696 0-95.232 11.776-120.832 2.56-6.144 0-13.824-6.144-16.384s-13.824 0-16.384 6.144c-1.024 2.048-8.192 17.92-14.848 39.936C465.408 57.856 390.144 10.752 315.904 12.8c-91.136 1.536-143.36 78.336-145.408 81.92l-4.608 6.656 4.608 7.168c43.008 61.952 82.432 99.328 119.808 120.32 90.112 50.688 165.376 6.656 221.184-25.6l22.528-12.8c-2.048 17.92-1.536 36.352 5.12 52.736m-40.448-61.952C419.84 226.816 323.072 283.136 195.584 101.888 209.92 83.968 252.928 38.912 316.416 37.376 381.952 35.328 452.096 79.36 522.24 168.96c-7.68 3.072-15.36 7.68-23.552 12.288z" p-id="2774"></path><path d="M525.312 187.392C377.344 114.688 286.72 105.984 285.696 105.984l1.536-20.48c3.584 0.512 95.232 8.704 246.784 83.456l-8.704 18.432z" p-id="2775"></path></svg>