<?xml version="1.0" standalone="no"?><!DOCTYPE svg PUBLIC "-//W3C//DTD SVG 1.1//EN" "http://www.w3.org/Graphics/SVG/1.1/DTD/svg11.dtd"><svg t="1557300123186" class="icon" style="" viewBox="0 0 1024 1024" version="1.1" xmlns="http://www.w3.org/2000/svg" p-id="5706" xmlns:xlink="http://www.w3.org/1999/xlink" width="64" height="64"><defs><style type="text/css"></style></defs><path d="M831.618032 397.637079h-19.902984V301.592381c0-0.601397-0.097524-1.202794-0.170667-1.812318a15.969524 15.969524 0 0 0-3.860318-10.524444L647.858794 106.682921c-0.048762-0.048762-0.097524-0.065016-0.130032-0.113778a16.075175 16.075175 0 0 0-4.299175-3.348318 16.879746 16.879746 0 0 0-3.210158-1.349079c-0.300698-0.08127-0.568889-0.203175-0.869588-0.284444a16.278349 16.278349 0 0 0-3.730285-0.463239H242.826159c-17.936254 0-32.507937 14.587937-32.507937 32.507937v263.996952H190.415238a46.461968 46.461968 0 0 0-46.461968 46.461969v241.615238a46.470095 46.470095 0 0 0 46.461968 46.461968h19.902984v165.400381c0 17.92 14.571683 32.507937 32.507937 32.507936h536.380952c17.92 0 32.507937-14.587937 32.507937-32.507936V732.176254h19.902984a46.470095 46.470095 0 0 0 46.461968-46.461968v-241.615238a46.461968 46.461968 0 0 0-46.461968-46.461969zM242.826159 133.640127h376.539428v166.31873a16.253968 16.253968 0 0 0 16.253969 16.253968h143.587555v81.432381h-536.380952V133.640127z m363.715047 307.11873L524.775619 683.495619h-64.097524l-77.791492-242.736762h60.14781l29.525333 102.635683c8.289524 28.810159 15.847619 56.539429 21.609651 86.788063h1.080889c6.111492-29.175873 13.677714-57.977905 21.959111-85.707174l30.980063-103.724699h58.351746zM199.566222 672.329143l11.158349-45.38108c14.76673 7.558095 37.45727 15.124317 60.862985 15.124318 25.209905 0 38.538159-10.435048 38.538158-26.282667 0-15.124317-11.53219-23.771429-40.708063-34.214603-40.334222-14.043429-66.616889-36.368254-66.616889-71.655619 0-41.423238 34.57219-73.110349 91.826794-73.110349 27.371683 0 47.542857 5.753905 61.943873 12.239238l-12.231112 44.30019a115.289397 115.289397 0 0 0-50.785523-11.524063c-23.763302 0-35.295492 10.808889-35.295492 23.405714 0 15.490032 13.677714 22.341079 45.023492 34.214603 42.84546 15.847619 63.016635 38.172444 63.016635 72.378921 0 40.699937-31.321397 75.272127-97.962667 75.272127-27.721143 0-55.100952-7.200508-68.77054-14.76673z m579.640889 216.437841h-536.380952V732.176254h536.380952v156.59073z m53.142349-216.437841c-16.920381 5.753905-48.965079 13.693968-81.017904 13.693968-44.30019 0-76.353016-11.174603-98.685969-32.768-22.332952-20.886349-34.564063-52.589714-34.214603-88.234667 0.373841-80.676571 59.075048-126.772825 138.662603-126.772825 31.321397 0 55.45854 6.127746 67.340191 11.881651l-11.532191 43.95073c-13.328254-5.762032-29.874794-10.459429-56.531301-10.459429-45.746794 0-80.310857 25.933206-80.310857 78.514794 0 50.062222 31.321397 79.587556 76.353015 79.587556 12.604952 0 22.682413-1.446603 26.997842-3.600254V587.337143h-37.432889v-42.853587h90.372063v127.845587z" p-id="5707"></path></svg>