<?xml version="1.0" standalone="no"?><!DOCTYPE svg PUBLIC "-//W3C//DTD SVG 1.1//EN" "http://www.w3.org/Graphics/SVG/1.1/DTD/svg11.dtd"><svg t="1550709869197" class="icon" style="" viewBox="0 0 1024 1024" version="1.1" xmlns="http://www.w3.org/2000/svg" p-id="3780" xmlns:xlink="http://www.w3.org/1999/xlink" width="32" height="32"><defs><style type="text/css"></style></defs><path d="M73.143 73.143v73.143h365.714V73.143H73.143zM700.717 464.41H324.57c-9.41 0-18.209-0.308-26.374-1.011v330.71c0 35.686 0.379 36.015 26.374 36.015h373.802c14.6-65.392 72.978-114.268 142.77-114.268 80.792 0 146.287 65.494 146.287 146.286 0 80.791-65.495 146.286-146.286 146.286-66.513 0-122.658-44.39-140.426-105.161H324.57c-64.302 0-99.516-30.636-99.516-109.158V219.429H73.143C32.747 219.429 0 186.68 0 146.286V73.143C0 32.747 32.747 0 73.143 0h365.714C479.253 0 512 32.747 512 73.143v73.143c0 40.395-32.747 73.143-73.143 73.143h-140.66v170.383c5.385 0.944 13.905 1.456 26.373 1.456h373.802C712.972 325.876 771.35 277 841.142 277c80.792 0 146.287 65.494 146.287 146.286 0 80.791-65.495 146.285-146.286 146.285-66.513 0-122.658-44.39-140.426-105.16z m140.426 470.875c40.396 0 73.143-32.747 73.143-73.143S881.539 789 841.143 789 768 821.747 768 862.143s32.747 73.143 73.143 73.143z m0-438.857c40.396 0 73.143-32.748 73.143-73.143 0-40.396-32.747-73.143-73.143-73.143S768 382.89 768 423.286c0 40.395 32.747 73.143 73.143 73.143z" p-id="3781"></path></svg>