<?xml version="1.0" standalone="no"?><!DOCTYPE svg PUBLIC "-//W3C//DTD SVG 1.1//EN" "http://www.w3.org/Graphics/SVG/1.1/DTD/svg11.dtd"><svg t="1551275827730" class="icon" style="" viewBox="0 0 1024 1024" version="1.1" xmlns="http://www.w3.org/2000/svg" p-id="16580" xmlns:xlink="http://www.w3.org/1999/xlink" width="128" height="128"><defs><style type="text/css"></style></defs><path d="M666.944 606.72c-3.2-1.856-6.976-13.504-0.192-37.568 72.768-76.928 117.696-187.136 117.696-290.112C784.448 115.328 667.776 0 507.52 0 347.648 0 235.904 114.368 235.904 278.144c0 104.448 45.376 215.424 118.848 291.904 7.36 24.064-2.24 32.704-8.32 35.392C273.6 631.04 0 724.736 0 854.4L0 1024l1024 0 0-191.552C988.544 713.6 729.728 626.816 666.944 606.72L666.944 606.72" p-id="16581"></path></svg>