<?xml version="1.0" standalone="no"?><!DOCTYPE svg PUBLIC "-//W3C//DTD SVG 1.1//EN" "http://www.w3.org/Graphics/SVG/1.1/DTD/svg11.dtd"><svg t="1557393458333" class="icon" style="" viewBox="0 0 1024 1024" version="1.1" xmlns="http://www.w3.org/2000/svg" p-id="4275" xmlns:xlink="http://www.w3.org/1999/xlink" width="64" height="64"><defs><style type="text/css"></style></defs><path d="M225.28 81.92c-56.32 0-97.28 46.08-97.28 97.28s46.08 97.28 97.28 97.28c56.32 0 97.28-46.08 97.28-97.28 0-56.32-46.08-97.28-97.28-97.28z m215.04 424.96l87.04-30.72h5.12l5.12 5.12 66.56 40.96L665.6 358.4l10.24-25.6 15.36 20.48 51.2 56.32 71.68-128 25.6 15.36-81.92 143.36-10.24 20.48-15.36-15.36-46.08-51.2-51.2 153.6-10.24 15.36-15.36-10.24-76.8-46.08-81.92 30.72-10.24-30.72z m15.36 384h296.96v51.2H455.68v-51.2z m189.44-168.96h322.56v-614.4H373.76v61.44h532.48v491.52H399.36v61.44H563.2v153.6h87.04v-153.6zM56.32 552.96l61.44 46.08-20.48 343.04h92.16l15.36-291.84h35.84l20.48 291.84h81.92l-15.36-343.04-5.12-204.8 204.8-5.12 46.08-76.8-230.4-10.24h-102.4l5.12 15.36-10.24 15.36 20.48 158.72-35.84 35.84v5.12-5.12l-35.84-35.84 20.48-158.72-5.12-20.48 5.12-10.24H102.4l-46.08 250.88z" p-id="4276"></path></svg>